<!--
  - Copyright (c) 2024. All rights reserved.
  - This source code is licensed under the CC BY-NC-SA
  - (Creative Commons Attribution-NonCommercial-NoDerivatives) License, By Xiao Songtao.
  - This software is protected by copyright law. Reproduction, distribution, or use for commercial
  - purposes is prohibited without the author's permission. If you have any questions or require
  - permission, please contact the author: 2207150234@st.sziit.edu.cn
  -->
<svg viewBox="-50 -50 1124 1124" xmlns="http://www.w3.org/2000/svg" width="30" height="30">
    <circle cx="512" cy="512" r="530" fill="#B3B3B3" />
    <path d="M509.44 1018.368c-141.312 0-277.504-59.904-372.736-164.352l-19.968-21.504 19.968-21.504c95.744-104.448 231.424-164.352 372.736-164.352 141.312 0 277.504 59.904 372.736 164.352l19.968 21.504-19.968 21.504c-95.232 104.448-231.424 164.352-372.736 164.352zM204.8 832.512c81.92 77.824 190.976 121.856 304.64 121.856 113.664 0 222.72-44.032 304.64-121.856-81.92-77.824-190.976-121.856-304.64-121.856-113.664 0-222.72 44.032-304.64 121.856zM509.952 600.576c-89.088 0-161.792-72.704-161.792-161.792 0-89.088 72.704-161.792 161.792-161.792s161.792 72.704 161.792 161.792c0 89.088-72.192 161.792-161.792 161.792z m0-259.584c-53.76 0-97.792 44.032-97.792 97.792s44.032 97.792 97.792 97.792 97.792-44.032 97.792-97.792-43.52-97.792-97.792-97.792z"/>
    <path d="M119.296 719.36c-33.792-63.488-51.2-134.144-51.2-206.848 0-243.712 198.144-441.344 441.344-441.344s441.344 198.144 441.344 441.344c0 72.192-17.92 143.36-51.2 206.336 16.384 15.36 31.744 31.744 46.08 49.152 45.568-77.312 69.12-165.376 69.12-255.488 0-279.04-226.816-505.856-505.856-505.856C230.4 7.168 4.096 233.984 4.096 512.512c0 90.112 24.064 178.688 69.632 255.488 13.824-16.896 29.184-33.28 45.568-48.64z"/>
</svg>