<svg version="1.1" width="64" height="64" viewBox="0 0 205.002 89.652" xmlns="http://www.w3.org/2000/svg">
    <path fill="white" d="M27.663,0h-0.492c-2.959,0-5.356,2.399-5.356,5.357v23.796H3.229c-1.799,0-3.251,1.47-3.229,3.268 l0.366,30.581c0.021,1.771,1.498,3.176,3.268,3.108l7.254-0.275l10.927-21.57v40.03c0,2.958,2.397,5.357,5.356,5.357h0.492 c2.959,0,5.357-2.398,5.357-5.357V5.357C33.021,2.399,30.622,0,27.663,0z"/>
    <path fill="white" d="M92.337,14.375l-5.914,13.979v25.725l11.207-26.49V5.357C97.63,2.399,95.231,0,92.272,0H91.78 c-1.035,0-1.992,0.309-2.812,0.815C92.879,4.003,94.401,9.495,92.337,14.375z"/>
    <path fill="white" d="M53.632,43.33V5.357C53.632,2.399,51.233,0,48.274,0h-0.492c-2.958,0-5.357,2.399-5.357,5.357v64.459 L53.632,43.33z"/>
    <path fill="white" d="M150.649,50.552v33.744c0,2.958,2.397,5.357,5.356,5.357h0.491c2.959,0,5.355-2.398,5.355-5.357V24.066 L150.649,50.552z"/>
    <path fill="white" d="M204.636,32.264c-0.021-1.771-1.498-3.178-3.268-3.109l-7.254,0.275l-10.926,21.57V5.357 c0-2.958-2.399-5.357-5.357-5.357h-0.492c-2.959,0-5.357,2.399-5.357,5.357v78.938c0,2.958,2.398,5.357,5.357,5.357h0.492 c2.958,0,5.357-2.398,5.357-5.357V66.113h18.584c1.799,0,3.25-1.47,3.229-3.271L204.636,32.264z"/>
    <path fill="white" d="M129.675,14.375l-0.316,0.75v23.229l11.207-26.488V5.357c0-2.958-2.397-5.357-5.356-5.357h-0.492 c-2.753,0-4.993,2.085-5.297,4.758C130.831,7.674,131.037,11.157,129.675,14.375z M135.133,87.227 c-0.358,0.847-0.813,1.621-1.333,2.333c0.299,0.052,0.602,0.092,0.915,0.092h0.492c2.959,0,5.356-2.398,5.356-5.357V74.39 L135.133,87.227z"/>
    <path fill="white" d="M112.696,77.734l6.537-15.451V39.054l-11.207,26.486v18.753c0,2.958,2.396,5.357,5.355,5.357h0.492 c0.17,0,0.331-0.035,0.497-0.05C111.757,86.367,110.962,81.833,112.696,77.734z"/>
    <path fill="white" d="M69.899,4.882c0.644-1.521,1.577-2.832,2.704-3.899C71.732,0.367,70.675,0,69.528,0h-0.492 c-2.959,0-5.357,2.399-5.357,5.357v14.227L69.899,4.882z M63.679,82.107v2.188c0,2.958,2.398,5.357,5.357,5.357h0.492 c2.959,0,5.357-2.398,5.357-5.357V55.62L63.679,82.107z"/>
    <path fill="#CD986F" d="M48.836,85.875l-0.453-0.19c-2.726-1.153-3.999-4.296-2.847-7.021l30.759-72.7 c1.153-2.725,4.297-3.999,7.021-2.846l0.453,0.192c2.725,1.151,3.999,4.296,2.847,7.021L55.857,83.028 C54.704,85.753,51.561,87.027,48.836,85.875z" />
    <path fill="#CD986F" d="M122.626,85.471l-0.453-0.191c-2.725-1.153-3.999-4.296-2.846-7.021L150.086,5.56 c1.153-2.727,4.297-3.999,7.021-2.848l0.453,0.191c2.727,1.153,4,4.296,2.849,7.021l-30.761,72.698 C128.495,85.35,125.353,86.625,122.626,85.471z" />
    <path fill="#CD986F" d="M86.174,85.875l-0.453-0.19c-2.725-1.153-3.999-4.296-2.847-7.021l30.76-72.699 c1.152-2.725,4.297-3.999,7.021-2.846l0.453,0.192c2.725,1.151,3.998,4.296,2.846,7.021L93.195,83.028 C92.042,85.753,88.898,87.027,86.174,85.875z" />
</svg>