<svg version="1.1" baseProfile="tiny" id="图层_1" x="0px" y="0px" width="150.972px" height="110.687px"
     viewBox="0 0 150.972 110.687" xml:space="preserve" xmlns="http://www.w3.org/2000/svg"
     xmlns:xlink="http://www.w3.org/1999/xlink" xmlns:xml="http://www.w3.org/XML/1998/namespace">
  <path fill="#F25936" d="M19.105,99.247L29.54,82.433l12.174,13.48L69.541,45.04l25.507,45.8l17.684-26.089l29.541,45.936
	c5.551-10.51,8.699-22.486,8.699-35.2C150.972,33.796,117.175,0,75.486,0C33.796,0,0,33.796,0,75.486
	c0,8.757,1.496,17.163,4.238,24.982l4.141-8.47L19.105,99.247z" class="color c1"/>
    <path fill="#333333" d="M246.343,106.362c-1.125-3-18.697-4.945-38.724-5.6l-22.584-35.117l-29.541-45.935l-17.683,26.088L112.304,0
L84.477,50.872L72.303,37.393L61.868,54.206l-10.727-7.248l-4.141,8.47l-22.645,46.315c0,0-36.681-2.715-20.014,5.285
s56.666-2.666,78,8s-30.666,0-9.333,9.334c21.333,9.332,72.134-1.404,93.333,1.332c31,4.002,49.707-6.645,19.333-8
c-37.333-1.666-85.667-9.332-42.333-8.666C186.677,109.696,248.343,111.694,246.343,106.362z M154.339,28.893l-3.417,35.413
l-9.298-13.434L154.339,28.893z M71.664,42.982l0.228-0.417l-1.505,19.142l-6.014-5.468L71.664,42.982z M49.032,60.601l3.384-7.348
l-2.596,9.092l-11.244,39.392l-8.484,0.004L49.032,60.601z M70.394,101.728l4.345-9.594l34.891-77.05l-11.48,86.634L70.394,101.728z
" class="color c1"/>
</svg>