<svg viewBox="0 0 1024 1024" xmlns="http://www.w3.org/2000/svg" width="36" height="36">
    <path d="M751.346 727.555H322.693c-42.262 0-40.216 61.294 0 61.294h428.653c39.499 0 43.08-61.294 0-61.294z" />
    <path d="M839.348 271.068V813.92c0 13.917-11.256 25.173-25.172 25.173h-551.55c-37.145-0.103-79.1-29.164-79.1-80.737 0-43.695 30.084-80.635 65.592-80.635h502.637c16.885 0 30.597-13.712 30.597-30.596V152.674c0-16.884-13.61-30.699-30.597-30.699H306.525c-101.612 0-184.294 82.682-184.294 184.294V759.89c0 8.494 0.717 16.885 2.251 25.173 11.257 65.49 62.83 115.222 124.534 115.222h565.057c47.685-0.102 86.365-38.68 86.468-86.467V271.17c0-41.136-61.193-40.624-61.193-0.102zM306.525 183.27h414.532v433.156H249.118c-23.433 0.102-46.252 7.163-65.592 20.466V306.269c0.102-67.844 55.155-122.897 122.999-122.999z" />
    <path d="M751.755 727.76H323c-44.82 0-40.42 61.294 0 61.294h428.653c40.113 0 41.136-61.295 0.102-61.295z" />
</svg>