<svg viewBox="0 0 1024 1024" version="1.1" xmlns="http://www.w3.org/2000/svg" width="40" height="40">
    <path d="M365.5 223.9H316c-9.1 0-16.4 7.3-16.4 16.6v560c0 9.2 7.3 16.6 16.4 16.6h379c36.4 0 65.9-29.5 65.9-65.9V289.7c0-36.4-29.5-65.9-65.9-65.9h-98.9v296.6c0 25.6-27.9 41.4-49.9 28.3l-65.4-39.3-65.4 39.3c-22 13.2-49.9-2.6-49.9-28.3V223.9z m-131.8 16.5c0-45.6 36.7-82.5 82.3-82.5h379c72.8 0 131.8 59 131.8 131.8v461.4c0 72.8-59 131.8-131.8 131.8H316c-45.5 0-82.3-36.9-82.3-82.5v-560z m197.7 221.8l32.5-19.5c10.4-6.3 23.5-6.3 33.9 0l32.5 19.5V223.9h-98.9v238.3z"/>
</svg>