<svg viewBox="0 0 1024 1024" xmlns="http://www.w3.org/2000/svg" width="36" height="36">
    <path d="M512 29.538462C245.563077 29.538462 29.538462 245.563077 29.538462 512S245.563077 994.461538 512 994.461538 994.461538 778.436923 994.461538 512c0-33.083077-3.347692-65.772308-9.924923-97.713231l-95.862153-2.481231a226.461538 226.461538 0 1 1-276.48-276.48l-2.481231-95.862153C577.811692 32.886154 545.122462 29.538462 512 29.538462z m-84.125538 107.677538l-5.907693 6.734769A324.923077 324.923077 0 0 0 669.538462 679.384615l10.397538-0.157538a324.411077 324.411077 0 0 0 200.152615-77.193846l6.695385-5.947077-2.284308 9.688615C842.633846 772.529231 691.712 896 512 896c-212.086154 0-384-171.913846-384-384 0-179.712 123.470769-330.633846 290.225231-372.460308l9.649231-2.323692z"/>
</svg>