<!--
  - Copyright (c) 2024. All rights reserved.
  - This source code is licensed under the CC BY-NC-SA
  - (Creative Commons Attribution-NonCommercial-NoDerivatives) License, By Xiao Songtao.
  - This software is protected by copyright law. Reproduction, distribution, or use for commercial
  - purposes is prohibited without the author's permission. If you have any questions or require
  - permission, please contact the author: 2207150234@st.sziit.edu.cn
  -->
<svg viewBox="0 0 1024 1024" xmlns="http://www.w3.org/2000/svg" width="36" height="36">
    <path d="M 511.991 158.56 l 326.944 204.163 l -326.944 204.163 l -326.926 -204.163 L 511.991 158.56 M 512 81.564 c -11.307 0 -22.613 2.691 -31.247 8.075 L 74.716 343.222 c -17.249 10.767 -17.249 28.235 0 39.02 l 406.037 253.565 c 8.634 5.401 19.94 8.093 31.247 8.093 c 11.297 0 22.605 -2.691 31.229 -8.093 l 406.055 -253.565 c 17.25 -10.785 17.25 -28.253 0 -39.02 L 543.229 89.639 c -8.624 -5.383 -19.932 -8.075 -31.229 -8.075 Z" />
    <path d="M 512 942.436 c -158.396 0 -318.75 -49.109 -318.75 -142.97 V 452.298 h 75 v 347.167 c 0 19.721 85.419 67.969 243.75 67.969 c 158.332 0 243.75 -48.248 243.75 -67.969 V 452.298 h 75 v 347.167 c 0 93.861 -160.354 142.971 -318.75 142.971 Z"/>
    <path d="M 899.104 321.616 c 20.709 0 37.5 16.791 37.5 37.5 v 225 c 0 20.709 -16.791 37.499 -37.5 37.499 s -37.5 -16.79 -37.5 -37.499 v -225 c 0 -20.71 16.791 -37.5 37.5 -37.5 Z"/>
</svg>