<svg viewBox="0 0 1024 1024" xmlns="http://www.w3.org/2000/svg" width="36" height="36">
    <path d="M414.72 960.853333c-3.413333 0-6.826667 0-8.533333-1.706666-10.24-3.413333-17.066667-13.653333-17.066667-25.6l5.12-138.24c0-5.12 1.706667-10.24 5.12-15.36L773.12 290.133333c8.533333-10.24 23.893333-13.653333 35.84-5.12l165.546667 114.346667c5.12 3.413333 10.24 10.24 10.24 17.066667s0 13.653333-5.12 18.773333l-385.706667 494.933333c-3.413333 5.12-10.24 8.533333-17.066667 10.24l-139.946666 17.066667c-3.413333 1.706667-8.533333 3.413333-15.36 1.706667-3.413333 1.706667-5.12 1.706667-6.826667 1.706666z m29.013333-155.306666l-3.413333 100.693333 117.76-15.36L921.6 424.96l-122.88-85.333333L443.733333 805.546667z"/>
    <path d="M851.626667 554.666667c-5.12 0-10.24-1.706667-15.36-5.12l-145.066667-110.933334c-11.946667-8.533333-13.653333-23.893333-5.12-35.84 8.533333-11.946667 23.893333-13.653333 35.84-5.12l145.066667 110.933334c11.946667 8.533333 13.653333 23.893333 5.12 35.84-5.12 6.826667-11.946667 10.24-20.48 10.24z"/>
    <path d="M351.573333 989.866667h-168.96c-78.506667 0-141.653333-63.146667-141.653333-141.653334V175.786667C39.253333 97.28 104.106667 34.133333 182.613333 34.133333h532.48c78.506667 0 141.653333 63.146667 141.653334 141.653334v27.306666c0 13.653333-11.946667 25.6-25.6 25.6s-25.6-11.946667-25.6-25.6v-27.306666c0-49.493333-40.96-90.453333-90.453334-90.453334H182.613333c-49.493333 0-90.453333 40.96-90.453333 90.453334v670.72c0 49.493333 40.96 90.453333 90.453333 90.453333h168.96c13.653333 0 25.6 11.946667 25.6 25.6s-10.24 27.306667-25.6 27.306667z"/>
    <path d="M646.826667 279.893333H189.44c-13.653333 0-25.6-11.946667-25.6-25.6s11.946667-25.6 25.6-25.6h457.386667c13.653333 0 25.6 11.946667 25.6 25.6s-11.946667 25.6-25.6 25.6zM482.986667 484.693333H189.44c-13.653333 0-25.6-11.946667-25.6-25.6s11.946667-25.6 25.6-25.6h295.253333c13.653333 0 25.6 11.946667 25.6 25.6s-11.946667 25.6-27.306666 25.6z"/>
    <path d="M372.053333 689.493333H189.44c-13.653333 0-25.6-11.946667-25.6-25.6s11.946667-25.6 25.6-25.6h182.613333c13.653333 0 25.6 11.946667 25.6 25.6s-11.946667 25.6-25.6 25.6z"/>
</svg>