<?xml version="1.0" standalone="no"?><!DOCTYPE svg PUBLIC "-//W3C//DTD SVG 1.1//EN" "http://www.w3.org/Graphics/SVG/1.1/DTD/svg11.dtd"><svg t="1725495761129" class="icon" viewBox="0 0 1024 1024" version="1.1" xmlns="http://www.w3.org/2000/svg" p-id="5490" xmlns:xlink="http://www.w3.org/1999/xlink" width="200" height="200"><path d="M178.005333 117.020444h236.828445c24.462222 0 46.648889 14.677333 56.149333 37.262223l34.360889 81.351111a30.492444 30.492444 0 0 0 28.103111 18.602666h314.993778c33.678222 0 60.984889 27.306667 60.984889 60.928v533.276445c0 33.678222-27.306667 60.984889-60.984889 60.984889H178.062222c-33.678222 0-60.984889-27.306667-60.984889-60.984889V178.062222c0-33.678222 27.306667-60.984889 60.984889-60.984889z m0 60.984889v670.435556h670.435556V315.221333H533.447111a91.420444 91.420444 0 0 1-84.195555-55.864889l-34.417778-81.351111H178.062222z" fill="#515151" p-id="5491"></path><path d="M360.846222 635.107556H665.6c20.309333 0 30.492444 10.183111 30.492444 30.492444 0 20.309333-10.183111 30.492444-30.492444 30.492444H360.846222c-20.309333 0-30.492444-10.183111-30.492444-30.492444 0-20.309333 10.183111-30.492444 30.492444-30.492444z" fill="#515151" fill-opacity=".5" p-id="5492"></path></svg>