<?xml version="1.0" standalone="no"?><!DOCTYPE svg PUBLIC "-//W3C//DTD SVG 1.1//EN" "http://www.w3.org/Graphics/SVG/1.1/DTD/svg11.dtd"><svg t="1725495695184" class="icon" viewBox="0 0 1024 1024" version="1.1" xmlns="http://www.w3.org/2000/svg" p-id="2891" xmlns:xlink="http://www.w3.org/1999/xlink" width="200" height="200"><path d="M593.8 882.2H481.9l-9.6-26.3c-3.9-10.6-33.1-21.6-75.5-21.6H262.4c-56.9 0-98.5-14.5-123.8-43.1-23.1-26.2-24-54.5-23.4-65.2V257.3c0-45.2 19.4-71.9 35.6-86.4 37.1-33.1 88.9-31.3 102.4-30.1h181c38.4 0 71.3 12.6 95.1 36.4 8.6-8.5 18.6-16 29.8-22.2 31.7-17.6 63-19.3 66.5-19.4H808.9c44.2 0 71.2 18.1 86.1 33.2 33.3 33.9 34.3 80 34.3 87.3v456.8c0 50.4-20.2 78.5-37.1 93.2-31.6 27.4-71.1 26.5-83.6 25.4H651.1c-38.5 0-47.9 17.5-49.7 22l-7.6 28.7z m-61.3-80h6.7c3.2-4.4 7-9.1 11.6-13.6 16.9-16.9 48.1-37 100.3-37H814l1.9 0.4c4.4 0.4 16.9 0 23.9-6.3 7.7-6.9 9.3-21.6 9.3-32.6V255.6c-0.1-3.6-1.3-14.6-6.2-23.7-4.4-8.1-11.9-16.3-34.2-16.3H628.5c-3.2 0.3-18.4 2.1-32.4 10.4-11.2 6.7-26.2 19.5-26.3 53.3v0.6l-80-0.3c0-0.9-0.5-18.1-8.5-33.7-6-11.7-16.8-25-47.1-25H248.7l-1.9-0.3c-7.6-0.7-31.2-0.3-42.9 10.2-2.1 1.9-8.7 7.8-8.7 26.5V730l-0.1 0.9c0.7 11.3 21.8 23.4 67.2 23.4h133.4c23.3-0.1 45.1 2.3 64.6 7 36.7 8.7 58.8 24.5 72.2 40.9z m-337.3-71.8z" p-id="2892"></path><path d="M489.1 232h80v343h-80z" p-id="2893"></path></svg>