<?xml version="1.0" standalone="no"?><!--
  - Copyright (c) 2024. All rights reserved.
  - This source code is licensed under the CC BY-NC-SA
  - (Creative Commons Attribution-NonCommercial-NoDerivatives) License, By Xiao Songtao.
  - This software is protected by copyright law. Reproduction, distribution, or use for commercial
  - purposes is prohibited without the author's permission. If you have any questions or require
  - permission, please contact the author: 2207150234@st.sziit.edu.cn
  -->
<!DOCTYPE svg PUBLIC "-//W3C//DTD SVG 1.1//EN" "http://www.w3.org/Graphics/SVG/1.1/DTD/svg11.dtd"><svg t="1725495764431" class="icon" viewBox="0 0 1024 1024" version="1.1" xmlns="http://www.w3.org/2000/svg" p-id="5642" xmlns:xlink="http://www.w3.org/1999/xlink" width="200" height="200"><path d="M830.590661 830.670623h-18.601281l114.366391-344.748399L509.880993 0 96.744651 485.922224l112.847103 344.748399h-15.282836a96.664688 96.664688 0 0 0-96.664689 96.664689 96.664688 96.664688 0 0 0 96.664689 96.664688h636.281743a96.664688 96.664688 0 0 0 96.664688-96.664688 96.664688 96.664688 0 0 0-96.664688-96.664689zM474.897392 149.170077v193.479306a34.983601 34.983601 0 1 0 69.967203 0v-194.308918l302.628143 353.084492-107.419647 323.848196H281.438076l-106.010308-323.848196z m355.693269 804.86272H194.308918a26.697486 26.697486 0 0 1 0-53.394971h636.281743a26.697486 26.697486 0 1 1 0 53.394971z" fill="#000000" p-id="5643"></path><path d="M511.550211 718.033422c72.076214 0 130.718726-58.642511 130.718725-130.718726s-58.642511-130.728721-130.718725-130.728721a130.878651 130.878651 0 0 0-130.728721 130.728721c0 72.076214 58.642511 130.718726 130.728721 130.718726z m0-191.480244a60.761518 60.761518 0 1 1-60.761518 60.761518 60.82149 60.82149 0 0 1 60.761518-60.761518z" fill="#000000" p-id="5644"></path></svg>