<?xml version="1.0" standalone="no"?><!--
  - Copyright (c) 2024. All rights reserved.
  - This source code is licensed under the CC BY-NC-SA
  - (Creative Commons Attribution-NonCommercial-NoDerivatives) License, By Xiao Songtao.
  - This software is protected by copyright law. Reproduction, distribution, or use for commercial
  - purposes is prohibited without the author's permission. If you have any questions or require
  - permission, please contact the author: 2207150234@st.sziit.edu.cn
  -->
<!DOCTYPE svg PUBLIC "-//W3C//DTD SVG 1.1//EN" "http://www.w3.org/Graphics/SVG/1.1/DTD/svg11.dtd"><svg t="1725495820109" class="icon" viewBox="0 0 1024 1024" version="1.1" xmlns="http://www.w3.org/2000/svg" p-id="10658" xmlns:xlink="http://www.w3.org/1999/xlink" width="200" height="200"><path d="M844.8 947.2l-54.8352-36.5568c1.4336-1.2288 2.7136-2.6624 4.1472-3.8912l-9.6256 2.4576-22.8864-15.9232A443.9552 443.9552 0 0 1 448 1024 448 448 0 0 1 0 575.9488a446.72 446.72 0 0 1 384-441.5488V8.9088A543.8976 543.8976 0 0 1 480 0 544 544 0 0 1 1024 543.9488a542.1056 542.1056 0 0 1-179.2 403.2512zM64 575.9488a384 384 0 0 0 384 384 380.8768 380.8768 0 0 0 260.3008-103.7824L398.1312 640H384v-9.8304l-0.6144-0.4096 0.6656-0.8704V198.5024a383.232 383.232 0 0 0-320 377.5488z m416-512c-10.9568 0-21.248 2.5088-32 3.2256v526.3872l388.4544 270.7456a477.0816 477.0816 0 0 0 123.5456-320.3072A480 480 0 0 0 480 64z" fill="#663BC9" p-id="10659"></path></svg>